<svg width="65" height="65" viewBox="0 0 65 65" fill="none" xmlns="http://www.w3.org/2000/svg">
<circle cx="32.5" cy="32.5" r="32.5" fill="#DC7000" fill-opacity="0.09"/>
<g clip-path="url(#clip0_3620_265)">
<path d="M45.7203 18.178H20.3813C18.2528 18.1804 16.5278 19.9053 16.5254 22.0339V44.0678C16.5278 46.1964 18.2528 47.9213 20.3813 47.9237H45.7203C47.8489 47.9213 49.5738 46.1964 49.5762 44.0678V22.0339C49.5738 19.9053 47.8489 18.1804 45.7203 18.178ZM48.4745 44.0678C48.4727 45.5882 47.2407 46.8202 45.7203 46.822H20.3813C18.861 46.8202 17.6289 45.5882 17.6271 44.0678V22.0339C17.6289 20.5135 18.861 19.2815 20.3813 19.2797H45.7203C47.2407 19.2815 48.4727 20.5135 48.4745 22.0339V44.0678Z" fill="#DC7000"/>
<path d="M45.7203 22.5848H20.3813C19.4686 22.5848 18.7288 23.3246 18.7288 24.2373V44.0678C18.7288 44.9805 19.4686 45.7204 20.3813 45.7204H45.7203C46.633 45.7204 47.3728 44.9805 47.3728 44.0678V24.2373C47.3728 23.3246 46.633 22.5848 45.7203 22.5848ZM33.0508 33.5268L27.0515 30.2966L33.0508 27.0665L39.0501 30.2966L33.0508 33.5268ZM39.661 31.2188V37.678L33.6016 40.9423V34.4831L39.661 31.2188ZM32.4999 34.4831V40.9423L26.4406 37.678V31.2188L32.4999 34.4831ZM19.8305 24.2373C19.8305 23.9331 20.0771 23.6865 20.3813 23.6865H32.4999V26.1102L25.6287 29.8119C25.6215 29.8158 25.6133 29.8174 25.6061 29.8218C25.4395 29.9219 25.338 30.1023 25.3389 30.2966V34.9138L19.8305 37.6681V24.2373ZM46.2711 44.0678C46.2711 44.3721 46.0245 44.6187 45.7203 44.6187H20.3813C20.0771 44.6187 19.8305 44.3721 19.8305 44.0678V38.8998L25.3389 36.1455V38.0085C25.339 38.2111 25.4503 38.3972 25.6287 38.4933L32.7897 42.3492C32.9527 42.4369 33.1489 42.4369 33.3119 42.3492L40.4729 38.4933C40.6513 38.3972 40.7626 38.2111 40.7627 38.0085V36.1455L46.2711 38.8998V44.0678ZM46.2711 37.6681L40.7627 34.9138V30.2966C40.7626 30.1029 40.6607 29.9234 40.4944 29.824C40.4872 29.8196 40.479 29.818 40.4718 29.8141L33.6016 26.1102V23.6865H45.7203C46.0245 23.6865 46.2711 23.9331 46.2711 24.2373V37.6681Z" fill="#DC7000"/>
<path d="M19.8304 21.4831C20.1346 21.4831 20.3812 21.2365 20.3812 20.9323C20.3812 20.628 20.1346 20.3814 19.8304 20.3814C19.5262 20.3814 19.2795 20.628 19.2795 20.9323C19.2795 21.2365 19.5262 21.4831 19.8304 21.4831Z" fill="#DC7000"/>
<path d="M22.0338 21.4831C22.338 21.4831 22.5846 21.2365 22.5846 20.9323C22.5846 20.628 22.338 20.3814 22.0338 20.3814C21.7295 20.3814 21.4829 20.628 21.4829 20.9323C21.4829 21.2365 21.7295 21.4831 22.0338 21.4831Z" fill="#DC7000"/>
<path d="M24.2371 21.4831C24.5413 21.4831 24.788 21.2365 24.788 20.9323C24.788 20.628 24.5413 20.3814 24.2371 20.3814C23.9329 20.3814 23.6863 20.628 23.6863 20.9323C23.6863 21.2365 23.9329 21.4831 24.2371 21.4831Z" fill="#DC7000"/>
<path d="M38.0084 21.4831H45.7202C46.0245 21.4831 46.2711 21.2365 46.2711 20.9323C46.2711 20.628 46.0245 20.3814 45.7202 20.3814H38.0084C37.7041 20.3814 37.4575 20.628 37.4575 20.9323C37.4575 21.2365 37.7041 21.4831 38.0084 21.4831Z" fill="#DC7000"/>
</g>
<defs>
<clipPath id="clip0_3620_265">
<rect width="33.0508" height="33.0508" fill="white" transform="translate(16.5254 16.5255)"/>
</clipPath>
</defs>
</svg>
