<svg width="65" height="65" viewBox="0 0 65 65" fill="none" xmlns="http://www.w3.org/2000/svg">
<circle cx="32.5" cy="32.5" r="32.5" fill="#DC7000" fill-opacity="0.09"/>
<g clip-path="url(#clip0_3620_209)">
<path d="M19.1879 29.3051C19.3295 29.3059 19.4655 29.2504 19.566 29.1507L21.6959 27.0208C21.9047 26.812 21.9047 26.4734 21.6959 26.2646C21.4871 26.0558 21.1486 26.0558 20.9398 26.2646L18.8099 28.3946C18.709 28.4946 18.6523 28.6307 18.6523 28.7726C18.6523 28.9146 18.709 29.0507 18.8099 29.1507C18.9103 29.2504 19.0464 29.3059 19.1879 29.3051Z" fill="#DC7000"/>
<path d="M19.1879 32.5C19.3295 32.5009 19.4655 32.4453 19.566 32.3456L24.8908 27.0208C25.0996 26.812 25.0996 26.4734 24.8908 26.2646C24.682 26.0558 24.3435 26.0558 24.1347 26.2646L18.8099 31.5895C18.709 31.6895 18.6523 31.8256 18.6523 31.9676C18.6523 32.1095 18.709 32.2456 18.8099 32.3456C18.9103 32.4453 19.0464 32.5009 19.1879 32.5Z" fill="#DC7000"/>
<path d="M46.8771 16.5255H33.0325C32.1502 16.5255 31.435 17.2407 31.435 18.1229V23.9803H19.1878C17.7174 23.9803 16.5254 25.1723 16.5254 26.6427V40.4873C16.5254 41.9577 17.7174 43.1497 19.1878 43.1497H25.0452V45.2797H23.4477C22.5655 45.2797 21.8502 45.9949 21.8502 46.8771C21.8502 47.7594 22.5655 48.4746 23.4477 48.4746H46.8771C47.7593 48.4746 48.4745 47.7594 48.4745 46.8771V18.1229C48.4745 17.2407 47.7593 16.5255 46.8771 16.5255ZM19.1878 25.0452H38.3573C39.2396 25.0452 39.9548 25.7604 39.9548 26.6427V39.4223H17.5904V26.6427C17.5904 25.7604 18.3056 25.0452 19.1878 25.0452ZM17.5904 40.4873H39.9548C39.9548 41.3696 39.2396 42.0848 38.3573 42.0848H19.1878C18.3056 42.0848 17.5904 41.3696 17.5904 40.4873ZM26.1101 43.1497H31.435V45.2797H26.1101V43.1497ZM33.0325 47.4096H23.4477C23.1536 47.4096 22.9152 47.1712 22.9152 46.8771C22.9152 46.5831 23.1536 46.3447 23.4477 46.3447H34.0974C34.3915 46.3447 34.6299 46.5831 34.6299 46.8771C34.6299 47.1712 34.3915 47.4096 34.0974 47.4096H33.0325ZM47.4096 46.8771C47.4096 47.1712 47.1712 47.4096 46.8771 47.4096H35.599C35.7716 46.9214 35.6969 46.3799 35.3986 45.9567C35.1002 45.5335 34.6152 45.2811 34.0974 45.2797H32.5V43.1497H38.3573C39.8277 43.1497 41.0197 41.9577 41.0197 40.4873V26.6427C41.0197 25.1723 39.8277 23.9803 38.3573 23.9803H32.5V18.1229C32.5 17.8288 32.7384 17.5904 33.0325 17.5904H46.8771C47.1712 17.5904 47.4096 17.8288 47.4096 18.1229V46.8771Z" fill="#DC7000"/>
<path d="M45.2796 19.1879H34.6299C34.0417 19.1879 33.5649 19.6647 33.5649 20.2529V21.3179C33.5649 21.906 34.0417 22.3828 34.6299 22.3828H45.2796C45.8678 22.3828 46.3446 21.906 46.3446 21.3179V20.2529C46.3446 19.6647 45.8678 19.1879 45.2796 19.1879ZM34.6299 21.3179V20.2529H45.2796V21.3179H34.6299Z" fill="#DC7000"/>
<path d="M44.2146 27.1751C45.0969 27.1751 45.8121 26.4599 45.8121 25.5777C45.8121 24.6954 45.0969 23.9802 44.2146 23.9802C43.3324 23.9802 42.6172 24.6954 42.6172 25.5777C42.6172 26.4599 43.3324 27.1751 44.2146 27.1751ZM44.2146 25.0452C44.5087 25.0452 44.7471 25.2836 44.7471 25.5777C44.7471 25.8718 44.5087 26.1102 44.2146 26.1102C43.9206 26.1102 43.6822 25.8718 43.6822 25.5777C43.6822 25.2836 43.9206 25.0452 44.2146 25.0452Z" fill="#DC7000"/>
<path d="M45.8121 29.8376C45.8121 28.9554 45.0969 28.2402 44.2146 28.2402C43.3324 28.2402 42.6172 28.9554 42.6172 29.8376C42.6172 30.7199 43.3324 31.4351 44.2146 31.4351C45.0969 31.4351 45.8121 30.7199 45.8121 29.8376ZM44.2146 30.3701C43.9206 30.3701 43.6822 30.1317 43.6822 29.8376C43.6822 29.5435 43.9206 29.3051 44.2146 29.3051C44.5087 29.3051 44.7471 29.5435 44.7471 29.8376C44.7471 30.1317 44.5087 30.3701 44.2146 30.3701Z" fill="#DC7000"/>
<path d="M37.2925 44.2147C36.9984 44.2147 36.76 44.4531 36.76 44.7472V45.8122C36.76 46.1063 36.9984 46.3447 37.2925 46.3447C37.5866 46.3447 37.825 46.1063 37.825 45.8122V44.7472C37.825 44.4531 37.5866 44.2147 37.2925 44.2147Z" fill="#DC7000"/>
<path d="M39.4224 44.2147C39.1283 44.2147 38.8899 44.4531 38.8899 44.7472V45.8122C38.8899 46.1063 39.1283 46.3447 39.4224 46.3447C39.7165 46.3447 39.9549 46.1063 39.9549 45.8122V44.7472C39.9549 44.4531 39.7165 44.2147 39.4224 44.2147Z" fill="#DC7000"/>
<path d="M41.5523 44.2147C41.2582 44.2147 41.0198 44.4531 41.0198 44.7472V45.8122C41.0198 46.1063 41.2582 46.3447 41.5523 46.3447C41.8463 46.3447 42.0847 46.1063 42.0847 45.8122V44.7472C42.0847 44.4531 41.8463 44.2147 41.5523 44.2147Z" fill="#DC7000"/>
<path d="M43.6821 44.2147C43.3881 44.2147 43.1497 44.4531 43.1497 44.7472V45.8122C43.1497 46.1063 43.3881 46.3447 43.6821 46.3447C43.9762 46.3447 44.2146 46.1063 44.2146 45.8122V44.7472C44.2146 44.4531 43.9762 44.2147 43.6821 44.2147Z" fill="#DC7000"/>
<path d="M45.812 44.2147C45.5179 44.2147 45.2795 44.4531 45.2795 44.7472V45.8122C45.2795 46.1063 45.5179 46.3447 45.812 46.3447C46.1061 46.3447 46.3445 46.1063 46.3445 45.8122V44.7472C46.3445 44.4531 46.1061 44.2147 45.812 44.2147Z" fill="#DC7000"/>
</g>
<defs>
<clipPath id="clip0_3620_209">
<rect width="31.9492" height="31.9492" fill="white" transform="translate(16.5254 16.5255)"/>
</clipPath>
</defs>
</svg>
